# xmcd
#
# Track frame offsets: 
#        150
#        13846
#        28651
#        42907
#        54843
#        69411
#        83420
#        96930
#        109639
#        122828
#        138403
#        153551
#        168262
#        181135
#        193885
#        207987
#        220500
#        234978
#        249084
#        262702
#
# Disc length: 3699 seconds
#
# Revision: 0
# Processed by: cddbd v1.5.2PL0 Copyright (c) Steve Scherf et al.
# Submitted via: ExactAudioCopy v0.99pb5
#
DISCID=fe0e7114
DTITLE=Various Artist - Blues Legends
DYEAR=1999
DGENRE=Blues
TTITLE0=1. Robert Johnson Sweet Home Chicago
TTITLE1=2. The Honey Dripper (Roosevelt Sykes) The Cannon Ball
TTITLE2=3. Washington (Bukka) White The Panama Limited
TTITLE3=4. Jazz Gillum Key To The Highway
TTITLE4=5. "Jabo" Williams Fat Mama Blues
TTITLE5=6. Johnnie Temple Lead Pencil Blues (It Just Won't Write) 
TTITLE6=7. Charley Jordan Keep It Clean
TTITLE7=8. Sonny Boy Williamson Sonny Boy's Jump
TTITLE8=9. Sleepy John Estes Jailhouse Blues
TTITLE9=10. Tampa Red Black Angel Blues
TTITLE10=I I. "Montana Taylor Detroit Rocks
TTITLE11=12. Charlie Pickett Down The Highway
TTITLE12=13. Sonny Ten-y Shake Down
TTITLE13=14. Lil Johnson House Rent Shuffle
TTITLE14=15. William Harris Bull Frog Blues
TTITLE15=16. Big Bill Broonzy I Can't Be Satisfied
TTITLE16=17. George Noble Dozing Blues
TTITLE17=18. Buddy Moss Oh Lordy Mama No.2
TTITLE18=19. Blind Blake Rope Stretchin' Blues
TTITLE19=20. Turner Parrish Fives
EXTD=
EXTT0=
EXTT1=
EXTT2=
EXTT3=
EXTT4=
EXTT5=
EXTT6=
EXTT7=
EXTT8=
EXTT9=
EXTT10=
EXTT11=
EXTT12=
EXTT13=
EXTT14=
EXTT15=
EXTT16=
EXTT17=
EXTT18=
EXTT19=
PLAYORDER=
